**ABCDEFGHIJKLMNOPQRSTUVWXYZabcdefghijklmnopqrstuvwxyz**************************
**PARASOLID !"#$%&'()*+,-./:;<=>?@[\]^_`{|}~0123456789**************************
**PART1;
MC=unknown;
MC_MODEL=unknown;
MC_ID=unknown;
OS=unknown;
OS_RELEASE=unknown;
FRU=Parasolid 37.1.212;
APPL=Onshape;
SITE=unknown;
USER=unknown;
FORMAT=text;
GUISE=transmit;
KEY=BTGapi::writeModels_.xmt;
FILE=BTGapi::writeModels_.xmt;
DATE=2026-07-06T18:31:42 (UTC);
**PART2;
SCH=SCH_3701212_37102;
USFLD_SIZE=0;
**PART3;
**END_OF_HEADER*****************************************************************
T51 : TRANSMIT FILE created by modeller version 370121223 SCH_3701212_37102_1300
6239 0 12 36 CCCI7 lattice222 0 CCCI4 mesh1006 0 I8 polyline1008 0 CCCCCCCDI5 ow
ner1040 0 CCCI16 boundary_lattice222 0 CCCI13 boundary_mesh1006 0 I17 boundary_p
olyline1008 0 CCCA16 index_map_offset0 0 1 dA9 index_map82 0 A17 node_id_index_m
ap82 0 A20 schema_embedding_map82 0 A5 child12 0 A14 lowest_node_id0 0 1 dA16 me
sh_offset_data206 0 Z1 2131 2 3 0 0 0 0 0 0 0 1e3 1e-8 0 4 0 1 0 1 2 5 0 6 7 8 0
 0 9 10 11 0 0 0 0 0 0 0 81 255 1 2 2100 12 1 13 0 0 0 14 70 11 CI9 list_type0 0
 1 uI10 notransmit0 0 1 lCCCDCCDI12 finger_index0 0 1 dI12 finger_block1012 0 CZ
3 0 4 T1 0 0 5 20 1 15 15 13 255 5 927 0 1 0 16 0 0 17 0 50 255 6 912 0 16 18 0
 0 +.02876438565052915 .012065 -.079375 0 -1 0 0 0 -1 30 255 7 926 0 10 19 0 0 +
.0328582653486774 .012065 -.079375 0 0 1 29 255 8 1143 0 11 20 0 .03285826534867
74 .00909 -.0762 19 9 CCCCCCI5 frame230 0 CA5 owner12 0 Z9 593 0 1 17 0 21 0 V0
 16 255 10 870 22 ?23 0 24 7 0 0 1 18 255 11 1141 25 27 0 30 8 ?1 81 1 25 2041 2
9 11 0 0 26 28 34 17 255 27 0 35 32 33 11 31 38 0 40 -18 30 1138 36 32 11 39 20
 ?1 81 1 36 2054 29 30 0 0 37 41 45 17 32 0 35 43 27 30 42 44 0 46 -18 39 1135 3
7 43 30 50 48 ?1 29 20 1140 0 30 48 8 .0246705059523809 .00909 -.0762 29 48 1137
 0 39 47 20 .0155805059523809 -155860922583021e-31 -.0762 29 47 1134 0 50 49 48
 .0155805059523809 -.058651744460588 -.0762 18 50 1132 51 55 39 52 47 ?1 29 49 1
131 0 52 53 47 .0246705059523809 -.067741744460588 -.0762 18 52 1129 54 57 50 60
 49 ?1 29 53 1128 0 60 59 49 .0449905059523809 -.067741744460588 -.0762 18 60 11
26 56 58 52 61 53 ?1 29 59 1125 0 61 62 53 .0540805059523809 -.058651744460588 -
.0762 18 61 1123 64 63 60 65 59 ?1 29 62 1122 0 65 66 59 .0540805059523809 -.056
515 -.0762 18 65 1120 70 68 61 67 62 ?1 29 66 1119 0 67 69 62 .0627705059523809
 -.047825 -.0762 18 67 1117 75 71 65 73 66 ?1 29 69 1116 0 73 72 66 .15568050595
2381 -.047825 -.0762 18 73 1114 74 76 67 80 69 ?1 29 72 1113 0 80 77 69 .1556805
05952381 .0002000000000000025 -.0762 18 80 1111 78 79 73 81 72 ?1 29 77 1110 0 8
1 85 72 .0558527465560844 2e-4 -.0762 18 81 1108 83 82 80 84 77 ?1 29 85 1104 0
 84 89 77 .0367022942285373 .00823720474255695 -.0762 18 84 1102 28 33 81 90 85
 ?1 29 89 589 0 90 87 85 .0246705059523809 .012065 -.079375 18 90 587 88 86 84 9
3 89 ?1 29 87 584 0 93 95 89 .0126055059523809 -161262659651777e-31 -.079375 18
 93 582 91 94 90 92 87 ?1 29 95 579 0 92 96 87 .0126055059523809 -.0586517444605
88 -.079375 18 92 577 100 98 93 97 95 ?1 29 96 574 0 97 99 95 .0246705059523809
 -.070716744460588 -.079375 18 97 572 101 105 92 103 96 ?1 29 99 569 0 103 102 9
6 .0449905059523809 -.070716744460588 -.079375 18 103 567 104 106 97 110 99 ?1 2
9 102 564 0 110 107 99 .0570555059523809 -.058651744460588 -.079375 18 110 562 1
08 109 103 112 102 ?1 29 107 559 0 112 115 102 .0570555059523809 -.056515 -.0793
75 18 112 557 114 111 110 113 107 ?1 29 115 554 0 113 116 107 .0627705059523809
 -.0508 -.079375 18 113 552 117 119 112 118 115 ?1 29 116 549 0 118 120 115 .158
655505952381 -.0508 -.079375 18 118 547 121 125 113 123 116 ?1 29 120 544 0 123
 122 116 .158655505952381 .003175 -.079375 18 123 542 124 130 118 126 120 ?1 29
 122 539 0 126 128 120 .0558527465560844 .003175 -.079375 18 126 537 127 129 123
 131 122 ?1 29 128 534 0 131 135 122 .053435956121717 .003711163354927055 -.0793
75 18 131 532 132 133 126 134 128 ?1 29 135 529 0 134 136 128 .0379603784878974
 .01093309958404286 -.079375 18 134 527 140 138 131 137 135 ?1 29 136 524 0 137
 139 135 .0328582653486774 .012065 -.079375 18 137 522 144 145 134 142 136 ?1 29
 139 1880 0 143 141 136 .0521778718623569 .001015268513441142 -.0762 18 143 1617
 148 150 146 0 139 ?1 29 141 1893 0 142 149 139 .0246705059523809 .012065 -.0685
8 18 142 1515 147 151 137 155 141 ?1 29 149 1894 0 155 153 141 .0126055059523809
 -161262659651777e-31 -.06858 18 155 1623 152 154 142 156 149 ?1 29 153 1895 0 1
56 160 149 .0126055059523809 -.058651744460588 -.06858 18 156 1563 158 157 155 1
59 153 ?1 29 160 1896 0 159 161 153 .0246705059523809 -.070716744460588 -.06858
 18 159 1559 165 162 156 163 160 ?1 29 161 1897 0 163 164 160 .0449905059523809
 -.070716744460588 -.06858 18 163 1555 167 170 159 169 161 ?1 29 164 1898 0 169
 166 161 .0570555059523809 -.058651744460588 -.06858 18 169 1551 168 171 163 172
 164 ?1 29 166 1899 0 172 174 164 .0570555059523809 -.056515 -.06858 18 172 1547
 173 175 169 176 166 ?1 29 174 1900 0 176 180 166 .0627705059523809 -.0508 -.068
58 18 176 1543 178 177 172 179 174 ?1 29 180 1901 0 179 185 174 .158655505952381
 -.0508 -.06858 18 179 1539 181 183 176 182 180 ?1 29 185 1902 0 182 184 180 .15
8655505952381 .003175 -.06858 18 182 1535 186 190 179 187 185 ?1 29 184 1903 0 1
87 188 185 .0558527465560844 .003175 -.06858 18 187 1531 189 191 182 195 184 ?1
 29 188 1904 0 195 193 184 .053435956121717 .003711163354927055 -.06858 18 195 1
527 192 194 187 199 188 ?1 29 193 1905 0 199 200 188 .0379603784878974 .01093309
958404286 -.06858 18 199 1523 197 198 195 196 193 ?1 29 200 1906 0 196 203 193 .
0328582653486774 .012065 -.06858 18 196 1519 205 23 199 201 200 ?1 29 203 1907 0
 201 204 200 .0367022942285373 .00823720474255695 -.06858 18 201 1567 202 206 19
6 210 203 ?1 29 204 1908 0 210 208 203 .0521778718623569 .001015268513441142 -.0
6858 18 210 1619 207 209 201 211 204 ?1 29 208 1909 0 211 215 204 .0558527465560
844 2e-4 -.06858 18 211 1615 213 212 210 214 208 ?1 29 215 1910 0 214 216 208 .1
55680505952381 .0002000000000000025 -.06858 18 214 1611 220 217 211 218 215 ?1 2
9 216 1911 0 218 219 215 .155680505952381 -.047825 -.06858 18 218 1607 222 225 2
14 224 216 ?1 29 219 1912 0 224 221 216 .0627705059523809 -.047825 -.06858 18 22
4 1603 223 226 218 227 219 ?1 29 221 1913 0 227 229 219 .0540805059523809 -.0565
15 -.06858 18 227 1599 228 230 224 231 221 ?1 29 229 1914 0 231 235 221 .0540805
059523809 -.058651744460588 -.06858 18 231 1595 233 232 227 234 229 ?1 29 235 19
15 0 234 240 229 .0449905059523809 -.067741744460588 -.06858 18 234 1591 236 238
 231 237 235 ?1 29 240 1916 0 237 239 235 .0246705059523809 -.067741744460588 -.
06858 18 237 1587 241 245 234 242 240 ?1 29 239 1917 0 242 243 240 .015580505952
3809 -.058651744460588 -.06858 18 242 1583 244 246 237 250 239 ?1 29 243 1918 0
 250 248 239 .0155805059523809 -155860922583021e-31 -.06858 18 250 1579 247 249
 242 254 243 ?1 29 248 1919 0 254 255 243 .0246705059523809 .00909 -.06858 18 25
4 1575 252 253 250 146 248 ?1 29 255 1920 0 146 0 248 .0328582653486774 .00909 -
.06858 18 146 1571 251 258 254 143 255 ?1 81 1 251 1572 29 146 0 0 202 252 260 1
7 258 0 256 259 42 146 40 257 0 261 -15 255 256 1686 0 42 265 0 17 259 0 256 46
 258 254 261 263 0 262 -17 42 0 256 258 46 11 32 44 0 0 +17 40 0 264 31 266 11 2
58 257 0 42 +16 257 1290 270 ?40 268 267 269 0 0 1 17 261 0 271 275 262 146 259
 263 0 266 +15 271 1742 0 275 272 273 17 275 0 271 274 261 201 266 277 0 0 +17 2
62 0 271 261 280 254 279 276 0 0 +16 263 1442 278 ?261 276 277 281 0 0 1 17 266
 0 264 40 206 146 275 277 0 0 -15 264 1682 0 31 282 0 17 206 0 264 266 31 201 28
4 283 0 285 -16 277 1403 286 ?275 263 290 288 0 0 1 81 1 286 1405 29 277 0 0 287
 289 295 16 290 1389 291 ?293 277 292 294 0 0 1 31 255 288 1864 0 277 0 281 0 +.
0328582653486774 -442354486374086e-31 -.06858 0 0 -1 -1 0 0 .00909 30 281 1863 0
 263 288 296 0 +.02876438565052915 .00909 -.06858 1 0 0 31 296 1862 0 276 281 30
0 0 +.0246705059523809 -1003585834775794e-32 -.06858 0 0 -1 -1 0 0 .00909 16 276
 1439 297 ?262 298 263 296 0 0 1 30 300 1861 0 298 296 299 0 +.0155805059523809
 -.02932587223029405 -.06858 -1774600389397605e-31 1 0 16 298 1436 301 ?280 305
 276 300 0 0 1 31 299 1860 0 305 300 303 0 +.0246705059523809 -.058651744460588
 -.06858 0 0 -1 -1 0 0 .00909 16 305 1433 302 ?304 309 298 299 0 0 1 30 303 1859
 0 309 299 310 0 +.0348305059523809 -.067741744460588 -.06858 -1 0 0 16 309 1430
 307 ?308 306 305 303 0 0 1 31 310 1858 0 306 303 313 0 +.0449905059523809 -.058
651744460588 -.06858 0 0 -1 -1 0 0 .00909 16 306 1427 315 ?311 314 309 310 0 0 1
 30 313 1857 0 314 310 312 0 +.0540805059523809 -.057583372230294 -.06858 0 -1 0
 16 314 1424 316 ?320 318 306 313 0 0 1 31 312 1856 0 318 313 317 0 +.0627705059
523809 -.056515 -.06858 0 0 1 -1 0 0 .00869 16 318 1421 319 ?321 325 314 312 0 0
 1 30 317 1855 0 325 312 323 0 +.109225505952381 -.047825 -.06858 -1 0 0 16 325
 1418 322 ?324 326 318 317 0 0 1 30 323 1854 0 326 317 330 0 +.155680505952381 -
.0238125 -.06858 0 -1 0 16 326 1415 327 ?328 329 325 323 0 0 1 30 330 1853 0 329
 323 332 0 +.1057666262542326 2e-4 -.06858 1 0 0 16 329 1412 335 ?334 331 326 33
0 0 0 1 31 332 1852 0 331 330 333 0 +.0558527465560844 .00889 -.06858 0 0 1 -1 0
 0 .00869 16 331 1409 336 ?337 339 329 332 0 0 1 30 333 1851 0 339 332 338 0 +.0
4444008304544715 .00462623662799905 -.06858 .906183139995266 -.4228854653311235
 0 16 339 1406 289 ?274 340 331 333 0 0 1 30 338 1850 0 340 333 341 0 +.02876438
565052915 .012065 -.06858 1 0 0 16 340 1207 345 ?343 342 339 338 0 0 1 31 341 18
49 0 342 338 344 0 +.0328582653486774 -3469446951953615e-33 -.06858 0 0 -1 -1 0
 0 .012065 16 342 1213 350 ?346 348 340 341 0 0 1 30 344 1848 0 348 341 347 0 +.
0456981673048072 .00732213146948497 -.06858 .906183139995266 -.4228854653311235
 0 16 348 1219 349 ?351 355 342 344 0 0 1 31 347 1847 0 355 344 352 0 +.05585274
65560844 .00889 -.06858 0 0 1 -1 0 0 .005715 16 355 1225 353 ?354 356 348 347 0
 0 1 30 352 1846 0 356 347 360 0 +.1072541262542326 .003175 -.06858 1 0 0 16 356
 1231 358 ?357 359 355 352 0 0 1 30 360 1845 0 359 352 364 0 +.158655505952381 -
.0238125 -.06858 0 -1 0 16 359 1237 365 ?362 363 356 360 0 0 1 30 364 1844 0 363
 360 361 0 +.110713005952381 -.0508 -.06858 -1 0 0 16 363 1243 368 ?370 366 359
 364 0 0 1 31 361 1843 0 366 364 369 0 +.0627705059523809 -.056515 -.06858 0 0 1
 -1 0 0 .005715 16 366 1249 367 ?371 375 363 361 0 0 1 30 369 1842 0 375 361 373
 0 +.0570555059523809 -.057583372230294 -.06858 0 -1 0 16 375 1255 372 ?374 376
 366 369 0 0 1 31 373 1841 0 376 369 380 0 +.0449905059523809 -.058651744460588
 -.06858 0 0 -1 -1 0 0 .012065 16 376 1261 378 ?377 379 375 373 0 0 1 30 380 184
0 0 379 373 381 0 +.0348305059523809 -.070716744460588 -.06858 -1 0 0 16 379 126
7 385 ?382 383 376 380 0 0 1 31 381 1839 0 383 380 384 0 +.0246705059523809 -.05
8651744460588 -.06858 0 0 -1 -1 0 0 .012065 16 383 1273 387 ?390 389 379 381 0 0
 1 30 384 1838 0 389 381 386 0 +.0126055059523809 -.02932587223029405 -.06858 -1
774600389397605e-31 1 0 16 389 1279 388 ?391 392 383 384 0 0 1 31 386 1837 0 392
 384 394 0 +.0246705059523809 -1030594520119576e-32 -.06858 0 0 -1 -1 0 0 .01206
5 16 392 1397 287 ?393 283 389 386 0 0 1 31 394 1836 0 38 386 395 0 +.0328582653
486774 -442354486374086e-31 -.0762 0 0 -1 -1 0 0 .00909 16 38 1285 41 ?31 44 0 3
94 0 0 1 30 395 1835 0 44 394 396 0 +.02876438565052915 .00909 -.0762 1 0 0 16 4
4 1293 400 ?42 398 38 395 0 0 1 31 396 1834 0 398 395 397 0 +.0246705059523809 -
1003585834775794e-32 -.0762 0 0 -1 -1 0 0 .00909 16 398 1301 399 ?405 401 44 396
 0 0 1 30 397 1833 0 401 396 403 0 +.0155805059523809 -.02932587223029405 -.0762
 -1774600389397605e-31 1 0 16 401 1309 402 ?404 406 398 397 0 0 1 31 403 1832 0
 406 397 410 0 +.0246705059523809 -.058651744460588 -.0762 0 0 -1 -1 0 0 .00909
 16 406 1317 407 ?408 409 401 403 0 0 1 30 410 1831 0 409 403 411 0 +.0348305059
523809 -.067741744460588 -.0762 -1 0 0 16 409 1325 415 ?413 412 406 410 0 0 1 31
 411 1830 0 412 410 414 0 +.0449905059523809 -.058651744460588 -.0762 0 0 -1 -1
 0 0 .00909 16 412 1333 419 ?420 417 409 411 0 0 1 30 414 1829 0 417 411 418 0 +
.0540805059523809 -.057583372230294 -.0762 0 -1 0 16 417 1341 416 ?423 425 412 4
14 0 0 1 31 418 1828 0 425 414 421 0 +.0627705059523809 -.056515 -.0762 0 0 1 -1
 0 0 .00869 16 425 1349 424 ?422 426 417 418 0 0 1 30 421 1827 0 426 418 430 0 +
.109225505952381 -.047825 -.0762 -1 0 0 16 426 1357 428 ?427 429 425 421 0 0 1 3
0 430 1826 0 429 421 431 0 +.155680505952381 -.0238125 -.0762 0 -1 0 16 429 1365
 435 ?433 432 426 430 0 0 1 30 431 1825 0 432 430 434 0 +.1057666262542326 2e-4
 -.0762 1 0 0 16 432 1373 436 ?440 292 429 431 0 0 1 31 434 1824 0 292 431 294 0
 +.0558527465560844 .00889 -.0762 0 0 1 -1 0 0 .00869 16 292 1381 437 ?438 290 4
32 434 0 0 1 30 294 1823 0 290 434 439 0 +.04444008304544715 .00462623662799905
 -.0762 .906183139995266 -.4228854653311235 0 30 439 1794 0 283 294 442 0 +.0367
022942285373 .00823720474255695 -.06858 0 0 -1 16 283 1394 445 ?284 444 392 439
 0 0 1 30 442 1793 0 444 439 441 0 +.0521778718623569 .001015268513441142 -.0685
8 0 0 -1 16 444 1386 443 ?446 447 283 442 0 0 1 30 441 1792 0 447 442 449 0 +.05
58527465560844 2e-4 -.06858 0 0 -1 16 447 1378 448 ?450 451 444 441 0 0 1 30 449
 1791 0 451 441 455 0 +.155680505952381 .0002000000000000025 -.06858 0 0 -1 16 4
51 1370 453 ?452 454 447 449 0 0 1 30 455 1790 0 454 449 460 0 +.155680505952381
 -.047825 -.06858 0 0 -1 16 454 1362 456 ?458 457 451 455 0 0 1 30 460 1789 0 45
7 455 459 0 +.0627705059523809 -.047825 -.06858 0 0 -1 16 457 1354 461 ?465 462
 454 460 0 0 1 30 459 1788 0 462 460 463 0 +.0540805059523809 -.056515 -.06858 0
 0 -1 16 462 1346 464 ?466 470 457 459 0 0 1 30 463 1787 0 470 459 468 0 +.05408
05059523809 -.058651744460588 -.06858 0 0 -1 16 470 1338 467 ?469 474 462 463 0
 0 1 30 468 1786 0 474 463 475 0 +.0449905059523809 -.067741744460588 -.06858 0
 0 -1 16 474 1330 472 ?473 471 470 468 0 0 1 30 475 1785 0 471 468 478 0 +.02467
05059523809 -.067741744460588 -.06858 0 0 -1 16 471 1322 480 ?476 479 474 475 0
 0 1 30 478 1784 0 479 475 477 0 +.0155805059523809 -.058651744460588 -.06858 0
 0 -1 16 479 1314 481 ?485 483 471 478 0 0 1 30 477 1783 0 483 478 482 0 +.01558
05059523809 -155860922583021e-31 -.06858 0 0 -1 16 483 1306 484 ?486 267 479 477
 0 0 1 30 482 1782 0 267 477 269 0 +.0246705059523809 .00909 -.06858 0 0 -1 16 2
67 1298 490 ?46 257 483 482 0 0 1 30 269 1781 0 257 482 488 0 +.0328582653486774
 .00909 -.06858 0 0 -1 30 488 239 0 268 269 487 0 +.02876438565052915 .012065 -.
079375 1 0 0 16 268 237 489 ?491 495 257 488 0 0 1 31 487 244 0 495 488 492 0 +.
0328582653486774 -3469446951953615e-33 -.079375 0 0 -1 -1 0 0 .012065 16 495 242
 493 ?138 494 268 487 0 0 1 30 492 249 0 494 487 497 0 +.0456981673048072 .00732
213146948497 -.079375 .906183139995266 -.4228854653311235 0 16 494 247 500 ?133
 499 495 492 0 0 1 31 497 254 0 499 492 496 0 +.0558527465560844 .00889 -.079375
 0 0 1 -1 0 0 .005715 16 499 252 498 ?129 501 494 497 0 0 1 30 496 259 0 501 497
 502 0 +.1072541262542326 .003175 -.079375 1 0 0 16 501 257 504 ?130 503 499 496
 0 0 1 30 502 264 0 503 496 505 0 +.158655505952381 -.0238125 -.079375 0 -1 0 16
 503 262 506 ?125 510 501 502 0 0 1 30 505 269 0 510 502 508 0 +.110713005952381
 -.0508 -.079375 -1 0 0 16 510 267 507 ?119 509 503 505 0 0 1 31 508 274 0 509 5
05 515 0 +.0627705059523809 -.056515 -.079375 0 0 1 -1 0 0 .005715 16 509 272 51
1 ?111 513 510 508 0 0 1 30 515 279 0 513 508 512 0 +.0570555059523809 -.0575833
72230294 -.079375 0 -1 0 16 513 277 514 ?109 516 509 515 0 0 1 31 512 284 0 516
 515 520 0 +.0449905059523809 -.058651744460588 -.079375 0 0 -1 -1 0 0 .012065 1
6 516 282 517 ?106 518 513 512 0 0 1 30 520 289 0 518 512 519 0 +.03483050595238
09 -.070716744460588 -.079375 -1 0 0 16 518 287 521 ?105 525 516 520 0 0 1 31 51
9 294 0 525 520 523 0 +.0246705059523809 -.058651744460588 -.079375 0 0 -1 -1 0
 0 .012065 16 525 292 522 ?98 524 518 519 0 0 1 30 523 299 0 524 519 529 0 +.012
6055059523809 -.02932587223029405 -.079375 -1774600389397605e-31 1 0 16 524 297
 530 ?94 527 525 523 0 0 1 31 529 304 0 527 523 528 0 +.0246705059523809 -103059
4520119576e-32 -.079375 0 0 -1 -1 0 0 .012065 16 527 302 526 ?86 533 524 529 0 0
 1 30 528 913 0 533 529 535 0 +.0246705059523809 .012065 -.079375 0 0 1 16 533 8
57 531 ?151 534 527 528 0 0 1 30 535 914 0 534 528 532 0 +.0126055059523809 -161
262659651777e-31 -.079375 0 0 1 16 534 858 536 ?154 540 533 535 0 0 1 30 532 915
 0 540 535 538 0 +.0126055059523809 -.058651744460588 -.079375 0 0 1 16 540 859
 537 ?157 539 534 532 0 0 1 30 538 916 0 539 532 541 0 +.0246705059523809 -.0707
16744460588 -.079375 0 0 1 16 539 860 545 ?162 543 540 538 0 0 1 30 541 917 0 54
3 538 542 0 +.0449905059523809 -.070716744460588 -.079375 0 0 1 16 543 861 544 ?
170 546 539 541 0 0 1 30 542 918 0 546 541 550 0 +.0570555059523809 -.0586517444
60588 -.079375 0 0 1 16 546 862 547 ?171 548 543 542 0 0 1 30 550 919 0 548 542
 549 0 +.0570555059523809 -.056515 -.079375 0 0 1 16 548 863 552 ?175 555 546 55
0 0 0 1 30 549 920 0 555 550 554 0 +.0627705059523809 -.0508 -.079375 0 0 1 16 5
55 864 551 ?177 553 548 549 0 0 1 30 554 921 0 553 549 556 0 +.158655505952381 -
.0508 -.079375 0 0 1 16 553 865 557 ?183 559 555 554 0 0 1 30 556 922 0 559 554
 558 0 +.158655505952381 .003175 -.079375 0 0 1 16 559 866 560 ?190 561 553 556
 0 0 1 30 558 923 0 561 556 565 0 +.0558527465560844 .003175 -.079375 0 0 1 16 5
61 867 563 ?191 562 559 558 0 0 1 30 565 924 0 562 558 19 0 +.053435956121717 .0
03711163354927055 -.079375 0 0 1 16 562 868 564 ?194 24 561 565 0 0 1 30 19 925
 0 24 565 7 0 +.0379603784878974 .01093309958404286 -.079375 0 0 1 16 24 869 570
 ?198 10 562 19 0 0 1 81 1 570 2070 29 24 0 0 22 564 566 17 198 0 568 351 567 19
9 569 24 0 346 +15 568 893 0 198 571 0 17 351 0 568 575 198 195 572 348 0 573 +1
7 567 0 568 198 575 134 133 494 0 0 -17 569 0 574 145 346 134 198 24 0 567 -17 3
46 0 574 569 23 199 576 342 0 572 +15 574 895 0 23 580 0 17 23 0 574 346 145 196
 578 10 0 576 +17 576 0 273 577 572 196 346 342 0 343 -17 572 0 273 576 573 199
 351 348 0 0 -15 273 1743 0 577 272 0 17 573 0 273 572 579 195 354 355 0 0 -17 5
79 0 273 573 584 187 357 356 0 0 -17 354 0 585 582 194 187 573 355 0 579 +15 585
 891 0 194 583 0 17 582 0 585 581 354 126 191 561 0 588 -17 194 0 585 354 581 19
5 575 562 0 351 +17 581 0 585 194 582 131 129 499 0 0 -17 575 0 568 567 351 131
 194 562 0 581 -17 129 0 590 130 133 126 581 499 0 582 +15 590 21 0 491 586 0 17
 130 0 590 125 129 123 588 501 0 589 +17 133 0 590 129 138 131 567 494 0 575 +17
 138 0 590 133 491 134 145 495 0 569 +17 491 0 590 138 86 137 587 268 0 578 +17
 145 0 574 23 569 137 138 495 0 491 -17 86 0 590 491 94 90 591 527 0 595 +17 587
 0 593 151 578 90 491 268 0 0 -17 578 0 593 587 343 137 23 10 0 0 -15 593 897 0
 151 16 0 17 343 0 593 578 151 196 577 340 0 0 +17 151 0 593 343 587 142 595 533
 0 393 +17 577 0 273 592 576 142 343 340 0 0 -17 592 0 273 594 577 155 393 392 0
 0 -17 594 0 273 596 592 156 391 389 0 0 -17 393 0 600 595 154 142 592 392 0 577
 +15 600 871 0 154 598 0 17 595 0 600 591 393 90 151 533 0 587 -17 154 0 600 393
 591 155 597 534 0 391 +17 591 0 600 154 595 93 86 527 0 0 -17 597 0 599 601 391
 93 154 534 0 591 -17 391 0 599 597 157 155 594 389 0 592 +15 599 873 0 157 605
 0 17 157 0 599 391 601 156 602 540 0 390 +17 601 0 599 157 597 92 94 524 0 0 -1
7 602 0 603 604 390 92 157 540 0 601 -17 390 0 603 602 162 156 596 383 0 594 +15
 603 875 0 162 607 0 17 162 0 603 390 604 159 610 539 0 382 +17 596 0 273 609 59
4 159 390 383 0 0 -17 609 0 273 606 596 163 382 379 0 0 -17 606 0 273 608 609 16
9 377 376 0 0 -17 382 0 611 610 170 159 609 379 0 596 +15 611 877 0 170 612 0 17
 610 0 611 614 382 97 162 539 0 604 -17 170 0 611 382 614 163 613 543 0 377 +17
 614 0 611 170 610 103 105 518 0 0 -17 613 0 615 616 377 103 170 543 0 614 -17 3
77 0 615 613 171 163 606 376 0 609 +15 615 879 0 171 620 0 17 171 0 615 377 616
 169 618 546 0 374 +17 616 0 615 171 613 110 106 516 0 0 -17 618 0 617 619 374 1
10 171 546 0 616 -17 374 0 617 618 175 169 608 375 0 606 +15 617 881 0 175 625 0
 17 175 0 617 374 619 172 621 548 0 371 +17 608 0 273 623 606 172 374 375 0 0 -1
7 623 0 273 622 608 176 371 366 0 0 -17 622 0 273 584 623 179 370 363 0 0 -17 37
1 0 624 621 177 172 623 366 0 608 +15 624 883 0 177 626 0 17 621 0 624 630 371 1
12 175 548 0 619 -17 177 0 624 371 630 176 627 555 0 370 +17 630 0 624 177 621 1
13 111 509 0 0 -17 627 0 628 629 370 113 177 555 0 630 -17 370 0 628 627 183 176
 622 363 0 623 +15 628 885 0 183 631 0 17 183 0 628 370 629 179 635 553 0 362 +1
7 629 0 628 183 627 118 119 510 0 0 -17 635 0 633 632 362 118 183 553 0 629 -17
 362 0 633 635 190 179 584 359 0 622 +15 633 887 0 190 634 0 17 190 0 633 362 63
2 182 589 559 0 357 +17 584 0 273 579 622 182 362 359 0 0 -17 632 0 633 190 635
 123 125 503 0 0 -17 589 0 639 588 357 123 190 559 0 632 -17 357 0 639 589 191 1
82 579 356 0 584 +15 639 889 0 191 640 0 17 191 0 639 357 588 187 582 561 0 354
 +17 588 0 639 191 589 126 130 501 0 0 -14 255 640 890 637 ?634 583 639 5 638 -0
 0 634 583 21 81 1 637 2105 636 640 643 0 645 641 644 14 634 888 641 ?631 640 63
3 5 642 -0 0 631 640 21 14 583 892 645 ?640 571 585 5 646 -0 0 640 571 21 50 638
 908 0 640 642 646 0 +.1072541262542326 .003175 -.079375 0 -1 0 0 0 -1 13 21 594
 0 0 0 0 0 0 9 16 14 16 898 650 ?580 0 593 5 6 -0 0 580 0 21 81 1 650 2101 636 1
6 648 0 0 647 649 14 580 896 647 ?571 16 574 5 18 -0 0 571 16 21 81 1 647 2102 6
36 580 651 0 650 655 653 14 571 894 655 ?583 580 568 5 652 -0 0 583 580 21 51 25
5 18 911 0 580 652 6 0 -.0328582653486774 -3469446951953615e-33 -.079375 0 0 1 .
012065 1 0 0 50 652 910 0 571 646 18 0 +.0456981673048072 .00732213146948497 -.0
79375 -.4228854653311235 -.906183139995266 0 .906183139995266 -.4228854653311235
 0 51 646 909 0 583 638 652 0 +.0558527465560844 .00889 -.079375 0 0 1 .005715 1
 0 0 81 1 655 2103 636 571 654 0 647 645 656 80 7 CCCCCDI12 legal_owners0 17 1 l
CZ1 636 0 660 8001 0 0 0 0 3 5 0 0 0 FFFFTFTFFFFFFFFFF2 81 1 654 2084 29 571 0 6
55 651 657 658 81 1 645 2104 636 583 657 0 655 637 659 83 255 3 656 .64705882352
9412 .647058823529412 .647058823529412 81 1 657 2085 29 583 0 645 654 643 662 83
 3 659 .647058823529412 .647058823529412 .647058823529412 80 1 29 665 664 9000 0
 0 0 0 3 6 0 0 0 FFTFTFTTFFFFFFFFF1 81 1 643 2086 29 640 0 637 657 661 663 82 25
5 3 662 82 2 2 81 1 661 2087 29 634 0 641 643 666 667 82 3 663 82 3 2 81 1 641 2
106 636 634 661 0 637 669 668 81 1 666 2088 29 631 0 669 661 670 671 82 3 667 82
 4 2 14 631 886 669 ?626 634 628 5 675 -0 0 626 634 21 81 1 669 2107 636 631 666
 0 641 673 672 81 1 670 2089 29 626 0 673 666 674 680 82 3 671 82 5 2 14 626 884
 673 ?625 631 624 5 676 -0 0 625 631 21 81 1 673 2108 636 626 670 0 669 678 677
 81 1 674 2090 29 625 0 678 670 679 681 82 3 680 82 6 2 14 625 882 678 ?620 626
 617 5 685 -0 0 620 626 21 81 1 678 2109 636 625 674 0 673 682 683 81 1 679 2091
 29 620 0 682 674 684 686 82 3 681 82 7 2 14 620 880 682 ?612 625 615 5 690 -0 0
 612 625 21 81 1 682 2110 636 620 679 0 678 688 687 81 1 684 2092 29 612 0 688 6
79 689 694 82 3 686 82 8 2 14 612 878 688 ?607 620 611 5 695 -0 0 607 620 21 81
 1 688 2111 636 612 684 0 682 692 693 81 1 689 2093 29 607 0 692 684 691 698 82
 3 694 82 9 2 14 607 876 692 ?605 612 603 5 700 -0 0 605 612 21 81 1 692 2112 63
6 607 689 0 688 696 699 81 1 691 2094 29 605 0 696 689 697 701 82 3 698 82 10 2
 14 605 874 696 ?598 607 599 5 705 -0 0 598 607 21 81 1 696 2113 636 605 691 0 6
92 703 702 81 1 697 2095 29 598 0 703 691 648 704 82 3 701 82 11 2 14 598 872 70
3 ?586 605 600 5 706 -0 0 586 605 21 81 1 703 2114 636 598 697 0 696 710 708 81
 1 648 2096 29 16 0 650 697 707 709 82 3 704 82 12 2 81 1 707 2097 29 711 0 715
 648 0 712 82 3 709 82 13 2 14 711 695 715 ?0 272 35 5 713 -0 0 0 272 21 81 1 71
5 2131 636 711 707 0 714 0 717 82 3 712 82 14 2 81 1 714 2130 636 272 720 0 719
 715 716 83 3 717 .647058823529412 .647058823529412 .647058823529412 14 272 1739
 714 ?711 718 271 5 721 -0 0 711 718 21 81 1 720 1741 29 272 0 714 722 26 724 81
 1 719 2129 636 718 722 0 723 714 725 83 3 716 .647058823529412 .647058823529412
 .647058823529412 14 718 1731 719 ?272 726 730 5 728 -0 0 272 726 21 81 1 722 17
33 29 718 0 719 727 720 729 81 1 723 2128 636 726 727 0 735 719 731 83 3 725 .64
7058823529412 .647058823529412 .647058823529412 14 726 1727 723 ?718 733 732 5 7
34 -0 0 718 733 21 81 1 727 1729 29 726 0 723 736 722 740 81 1 735 2127 636 733
 736 0 737 723 738 83 3 731 .647058823529412 .647058823529412 .647058823529412 1
4 733 1723 735 ?726 739 741 5 745 -0 0 726 739 21 81 1 736 1725 29 733 0 735 743
 727 742 81 1 737 2126 636 739 743 0 744 735 749 83 3 738 .647058823529412 .6470
58823529412 .647058823529412 14 739 1719 737 ?733 750 747 5 748 -0 0 733 750 21
 81 1 743 1721 29 739 0 737 746 736 753 81 1 744 2125 636 750 746 0 755 737 751
 83 3 749 .647058823529412 .647058823529412 .647058823529412 14 750 1715 744 ?73
9 754 752 5 756 -0 0 739 754 21 81 1 746 1717 29 750 0 744 760 743 758 81 1 755
 2124 636 754 760 0 757 744 759 83 3 751 .647058823529412 .647058823529412 .6470
58823529412 14 754 1711 755 ?750 761 765 5 763 -0 0 750 761 21 81 1 760 1713 29
 754 0 755 762 746 764 81 1 757 2123 636 761 762 0 766 755 770 83 3 759 .6470588
23529412 .647058823529412 .647058823529412 14 761 1707 757 ?754 767 768 5 769 -0
 0 754 767 21 81 1 762 1709 29 761 0 757 772 760 775 81 1 766 2122 636 767 772 0
 774 757 771 83 3 770 .647058823529412 .647058823529412 .647058823529412 14 767
 1703 766 ?761 773 776 5 777 -0 0 761 773 21 81 1 772 1705 29 767 0 766 779 762
 778 81 1 774 2121 636 773 779 0 780 766 781 83 3 771 .647058823529412 .64705882
3529412 .647058823529412 14 773 1699 774 ?767 785 783 5 782 -0 0 767 785 21 81 1
 779 1701 29 773 0 774 784 772 790 81 1 780 2120 636 785 784 0 786 774 788 83 3
 781 .647058823529412 .647058823529412 .647058823529412 14 785 1695 780 ?773 787
 789 5 791 -0 0 773 787 21 81 1 784 1697 29 785 0 780 795 779 792 81 1 786 2119
 636 787 795 0 793 780 794 83 3 788 .647058823529412 .647058823529412 .647058823
529412 14 787 1691 786 ?785 796 800 5 798 -0 0 785 796 21 81 1 795 1693 29 787 0
 786 797 784 799 81 1 793 2118 636 796 797 0 804 786 805 83 3 794 .6470588235294
12 .647058823529412 .647058823529412 14 796 1687 793 ?787 265 802 5 803 -0 0 787
 265 21 81 1 797 1689 29 796 0 793 801 795 808 81 1 804 2117 636 265 801 0 810 7
93 806 83 3 805 .647058823529412 .647058823529412 .647058823529412 14 265 1683 8
04 ?796 282 256 5 809 -0 0 796 282 21 81 1 801 1685 29 265 0 804 807 797 811 81
 1 810 2116 636 282 807 0 710 804 815 83 3 806 .647058823529412 .647058823529412
 .647058823529412 14 282 1679 810 ?265 586 264 5 813 -0 0 265 586 21 81 1 807 16
81 29 282 0 810 152 801 812 81 1 710 2115 636 586 814 0 703 810 816 83 3 815 .64
7058823529412 .647058823529412 .647058823529412 14 586 1 710 ?282 598 590 5 820
 +0 0 282 598 21 81 1 814 1044 29 586 0 710 489 345 818 83 3 816 .64705882352941
2 .647058823529412 .647058823529412 81 1 489 1041 29 268 0 0 526 814 817 81 1 34
5 1209 29 340 0 0 814 350 819 82 3 818 80 2 2 81 1 350 1215 29 342 0 0 345 349 8
21 82 3 819 81 55 1 81 1 349 1221 29 348 0 0 350 353 825 82 3 821 81 29 1 81 1 3
53 1227 29 355 0 0 349 358 822 82 3 825 81 31 1 81 1 358 1233 29 356 0 0 353 365
 823 82 3 822 81 33 1 81 1 365 1239 29 359 0 0 358 368 824 82 3 823 81 35 1 81 1
 368 1245 29 363 0 0 365 367 827 82 3 824 81 37 1 81 1 367 1251 29 366 0 0 368 3
72 830 82 3 827 81 39 1 81 1 372 1257 29 375 0 0 367 378 829 82 3 830 81 41 1 81
 1 378 1263 29 376 0 0 372 385 826 82 3 829 81 43 1 81 1 385 1269 29 379 0 0 378
 387 828 82 3 826 81 45 1 81 1 387 1275 29 383 0 0 385 388 831 82 3 828 81 47 1
 81 1 388 1281 29 389 0 0 387 270 832 82 3 831 81 49 1 81 1 270 1292 29 257 0 0
 388 490 834 82 3 832 81 51 1 81 1 490 1300 29 267 0 0 270 484 833 82 3 834 81 1
4 1 81 1 484 1308 29 483 0 0 490 481 835 82 3 833 81 27 1 81 1 481 1316 29 479 0
 0 484 480 836 82 3 835 81 26 1 81 1 480 1324 29 471 0 0 481 472 840 82 3 836 81
 25 1 81 1 472 1332 29 474 0 0 480 467 838 82 3 840 81 24 1 81 1 467 1340 29 470
 0 0 472 464 837 82 3 838 81 23 1 81 1 464 1348 29 462 0 0 467 461 839 82 3 837
 81 22 1 81 1 461 1356 29 457 0 0 464 456 845 82 3 839 81 21 1 81 1 456 1364 29
 454 0 0 461 453 841 82 3 845 81 20 1 81 1 453 1372 29 451 0 0 456 448 843 82 3
 841 81 19 1 81 1 448 1380 29 447 0 0 453 443 842 82 3 843 81 18 1 81 1 443 1388
 29 444 0 0 448 445 844 82 3 842 81 17 1 81 1 445 1396 29 283 0 0 443 287 846 82
 3 844 81 16 1 81 1 287 1399 29 392 0 0 445 286 850 82 3 846 81 15 1 82 3 850 81
 53 1 81 1 526 1039 29 527 0 0 530 489 847 82 3 817 80 41 1 81 1 530 1037 29 524
 0 0 522 526 848 82 3 847 80 39 1 81 1 522 1035 29 525 0 0 521 530 849 82 3 848
 80 37 1 81 1 521 1033 29 518 0 0 517 522 851 82 3 849 80 35 1 81 1 517 1031 29
 516 0 0 514 521 855 82 3 851 80 33 1 81 1 514 1029 29 513 0 0 511 517 853 82 3
 855 80 31 1 81 1 511 1027 29 509 0 0 507 514 852 82 3 853 80 29 1 81 1 507 1025
 29 510 0 0 506 511 854 82 3 852 80 27 1 81 1 506 1023 29 503 0 0 504 507 859 82
 3 854 80 25 1 81 1 504 1021 29 501 0 0 498 506 860 82 3 859 80 23 1 81 1 498 10
19 29 499 0 0 500 504 857 82 3 860 80 21 1 81 1 500 1017 29 494 0 0 493 498 858
 82 3 857 80 19 1 81 1 493 1015 29 495 0 0 88 500 856 82 3 858 80 17 1 81 1 88 9
99 29 90 0 0 91 493 863 82 3 856 80 15 1 81 1 91 997 29 93 0 0 100 88 865 82 3 8
63 80 27 0 81 1 100 995 29 92 0 0 101 91 861 82 3 865 80 25 0 81 1 101 993 29 97
 0 0 104 100 864 82 3 861 80 23 0 81 1 104 991 29 103 0 0 108 101 862 82 3 864 8
0 21 0 81 1 108 989 29 110 0 0 114 104 866 82 3 862 80 19 0 81 1 114 987 29 112
 0 0 117 108 870 82 3 866 80 17 0 81 1 117 985 29 113 0 0 121 114 868 82 3 870 8
0 15 0 81 1 121 983 29 118 0 0 124 117 867 82 3 868 80 13 0 81 1 124 981 29 123
 0 0 127 121 869 82 3 867 80 11 0 81 1 127 979 29 126 0 0 132 124 871 82 3 869 8
0 9 0 81 1 132 977 29 131 0 0 140 127 875 82 3 871 80 7 0 81 1 140 975 29 134 0
 0 144 132 873 82 3 875 80 5 0 81 1 144 973 29 137 0 0 0 140 872 82 3 873 80 3 0
 82 3 872 80 1 0 50 820 3 0 586 813 713 0 +.0856305059523809 -.02932587223029405
 -.079375 0 0 -1 1 0 0 51 813 1751 0 282 809 820 0 +.0328582653486774 -442354486
374086e-31 -.06858 0 0 -1 .00909 -1 0 0 50 713 828 0 711 820 706 0 +.08563050595
23809 -.02932587223029405 -.0762 0 0 -1 1 0 0 51 706 899 0 598 713 705 0 -.02467
05059523809 -1030594520119576e-32 -.079375 0 0 1 .012065 1 0 0 50 705 900 0 605
 706 700 0 +.0126055059523809 -.02932587223029405 -.079375 1 1774600389397605e-3
1 0 -177460038939761e-30 1 0 51 700 901 0 607 705 695 0 -.0246705059523809 -.058
651744460588 -.079375 0 0 1 .012065 1 0 0 50 695 902 0 612 700 690 0 +.034830505
9523809 -.070716744460588 -.079375 0 1 0 0 0 1 51 690 903 0 620 695 685 0 -.0449
905059523809 -.058651744460588 -.079375 0 0 1 .012065 1 0 0 50 685 904 0 625 690
 676 0 +.0570555059523809 -.057583372230294 -.079375 -1 0 0 0 0 1 51 676 905 0 6
26 685 675 0 +.0627705059523809 -.056515 -.079375 0 0 1 .005715 1 0 0 50 675 906
 0 631 676 642 0 +.110713005952381 -.0508 -.079375 0 1 0 0 0 1 50 642 907 0 634
 675 638 0 +.158655505952381 -.0238125 -.079375 -1 0 0 0 0 1 50 809 1752 0 265 8
03 813 0 +.02876438565052915 .00909 -.06858 0 1 0 0 0 1 51 803 1753 0 796 798 80
9 0 +.0246705059523809 -1003585834775794e-32 -.06858 0 0 -1 .00909 -1 0 0 50 798
 1754 0 787 791 803 0 +.0155805059523809 -.02932587223029405 -.06858 -1 -1774600
389397605e-31 0 1774600389397605e-31 -1 0 51 791 1755 0 785 782 798 0 +.02467050
59523809 -.058651744460588 -.06858 0 0 -1 .00909 -1 0 0 50 782 1756 0 773 777 79
1 0 +.0348305059523809 -.067741744460588 -.06858 0 -1 0 0 0 -1 51 777 1757 0 767
 769 782 0 +.0449905059523809 -.058651744460588 -.06858 0 0 -1 .00909 -1 0 0 50
 769 1758 0 761 763 777 0 +.0540805059523809 -.057583372230294 -.06858 1 0 0 0 0
 -1 51 763 1759 0 754 756 769 0 -.0627705059523809 -.056515 -.06858 0 0 -1 .0086
9 -1 0 0 50 756 1760 0 750 748 763 0 +.109225505952381 -.047825 -.06858 0 -1 0 0
 0 -1 50 748 1761 0 739 745 756 0 +.155680505952381 -.0238125 -.06858 1 0 0 0 0
 -1 50 745 1762 0 733 734 748 0 +.1057666262542326 2e-4 -.06858 0 1 0 0 0 1 51 7
34 1763 0 726 728 745 0 -.0558527465560844 .00889 -.06858 0 0 -1 .00869 -1 0 0 5
0 728 1764 0 718 721 734 0 +.04444008304544715 .00462623662799905 -.06858 .42288
54653311235 .906183139995266 0 -.906183139995266 .4228854653311235 0 50 721 1780
 0 272 0 728 0 +.0856305059523809 -.02932587223029405 -.06858 0 0 -1 1 0 0 81 1
 152 1624 29 155 0 0 207 807 874 82 3 812 81 16 2 81 1 207 1620 29 210 0 0 213 1
52 876 82 3 874 81 25 0 81 1 213 1616 29 211 0 0 220 207 880 82 3 876 81 33 0 81
 1 220 1612 29 214 0 0 222 213 877 82 3 880 81 35 0 81 1 222 1608 29 218 0 0 223
 220 878 82 3 877 81 37 0 81 1 223 1604 29 224 0 0 228 222 879 82 3 878 81 39 0
 81 1 228 1600 29 227 0 0 233 223 882 82 3 879 81 41 0 81 1 233 1596 29 231 0 0
 236 228 885 82 3 882 81 43 0 81 1 236 1592 29 234 0 0 241 233 884 82 3 885 81 4
5 0 81 1 241 1588 29 237 0 0 244 236 881 82 3 884 81 47 0 81 1 244 1584 29 242 0
 0 247 241 883 82 3 881 81 49 0 81 1 247 1580 29 250 0 0 252 244 886 82 3 883 81
 51 0 81 1 252 1576 29 254 0 0 251 247 887 82 3 886 81 53 0 82 3 887 81 55 0 82
 3 811 81 29 2 82 3 808 81 28 2 15 802 1690 0 405 796 0 17 405 0 802 253 486 30
 43 398 0 0 +17 253 0 802 279 405 254 46 267 0 259 -17 486 0 802 405 279 39 249
 483 0 404 +17 43 0 35 55 32 39 405 398 0 486 -15 35 1145 0 27 711 0 17 55 0 35
 57 43 50 404 401 0 485 -17 57 0 35 58 55 52 408 406 0 476 -17 404 0 800 249 485
 39 55 401 0 0 +17 485 0 800 404 889 50 246 479 0 408 +15 800 1694 0 404 787 0 1
7 889 0 800 485 249 242 280 298 0 304 -17 246 0 789 888 408 242 485 479 0 889 -1
7 408 0 789 246 476 50 57 406 0 0 +15 789 1698 0 408 785 0 17 476 0 789 408 888
 52 245 471 0 413 +17 888 0 789 476 246 237 304 305 0 308 -17 245 0 783 890 413
 237 476 471 0 888 -17 413 0 783 245 473 52 58 409 0 0 +15 783 1702 0 413 773 0
 17 473 0 783 413 890 60 238 474 0 420 +17 58 0 35 63 57 60 413 409 0 473 -17 63
 0 35 68 58 61 420 412 0 469 -17 68 0 35 71 63 65 423 417 0 466 -17 420 0 776 23
8 469 60 63 412 0 0 +17 469 0 776 420 891 61 232 470 0 423 +15 776 1706 0 420 76
7 0 17 891 0 776 469 238 231 311 306 0 320 -17 232 0 768 895 423 231 469 470 0 8
91 -17 423 0 768 232 466 61 68 417 0 0 +15 768 1710 0 423 761 0 17 466 0 768 423
 895 65 230 462 0 422 +17 895 0 768 466 232 227 320 314 0 321 -17 230 0 765 893
 422 227 466 462 0 895 -17 422 0 765 230 465 65 71 425 0 0 +15 765 1714 0 422 75
4 0 17 465 0 765 422 893 67 226 457 0 427 +17 71 0 35 76 68 67 422 425 0 465 -17
 76 0 35 79 71 73 427 426 0 458 -17 79 0 35 82 76 80 433 429 0 452 -17 427 0 752
 226 458 67 76 426 0 0 +17 458 0 752 427 892 73 225 454 0 433 +15 752 1718 0 427
 750 0 17 892 0 752 458 226 218 324 325 0 328 -17 225 0 747 894 433 218 458 454
 0 892 -17 433 0 747 225 452 73 79 429 0 0 +15 747 1722 0 433 739 0 17 452 0 747
 433 894 80 217 451 0 440 +17 894 0 747 452 225 214 328 326 0 334 -17 217 0 741
 900 440 214 452 451 0 894 -17 440 0 741 217 450 80 82 432 0 0 +15 741 1726 0 44
0 733 0 17 450 0 741 440 900 81 212 447 0 438 +17 82 0 35 150 79 81 440 432 0 45
0 -17 150 0 35 33 82 143 438 292 0 446 -17 33 0 35 27 150 84 293 290 0 284 -17 4
38 0 732 212 446 81 150 292 0 0 +17 446 0 732 438 896 143 209 444 0 293 +15 732
 1730 0 438 726 0 17 896 0 732 446 212 210 337 331 0 274 -17 209 0 730 285 293 2
10 446 444 0 896 -17 293 0 730 209 284 143 33 290 0 0 +15 730 1734 0 293 718 0 1
7 284 0 730 293 285 84 206 283 0 31 +17 285 0 730 284 209 201 274 339 0 275 -17
 31 0 264 206 40 84 27 38 0 0 +17 274 0 271 337 275 210 285 339 0 0 +17 337 0 27
1 334 274 211 896 331 0 0 +17 334 0 271 328 337 214 900 329 0 0 +17 328 0 271 32
4 334 218 894 326 0 0 +17 900 0 741 450 217 211 334 329 0 337 -17 324 0 271 321
 328 224 892 325 0 0 +17 321 0 271 320 324 227 893 318 0 0 +17 320 0 271 311 321
 231 895 314 0 0 +17 893 0 765 465 230 224 321 318 0 324 -17 311 0 271 308 320 2
34 891 306 0 0 +17 308 0 271 304 311 237 890 309 0 0 +17 304 0 271 280 308 242 8
88 305 0 0 +17 890 0 783 473 245 234 308 309 0 311 -17 280 0 271 262 304 250 889
 298 0 0 +17 212 0 732 896 438 211 450 447 0 900 -17 226 0 752 892 427 224 465 4
57 0 893 -17 238 0 776 891 420 234 473 474 0 890 -17 249 0 800 889 404 250 486 4
83 0 279 -17 279 0 802 486 253 250 262 276 0 280 -17 46 0 256 42 259 30 253 267
 0 405 +82 3 799 81 27 2 82 3 792 81 26 2 82 3 790 81 25 2 82 3 778 81 24 2 82 3
 775 81 23 2 82 3 764 81 22 2 82 3 758 81 21 2 82 3 753 81 20 2 82 3 742 81 19 2
 82 3 740 81 18 2 82 3 729 81 17 2 81 1 26 2040 29 1 0 898 720 25 897 82 3 724 8
1 2 2 81 1 898 2098 899 1 26 13 0 0 901 82 3 897 80 0 3 80 1 899 905 902 8038 0
 0 0 0 0 0 0 0 0 TTTTTTTTTTTTTFTFT10 81 1 13 2099 905 1 898 2 0 0 903 98 255 12
 901 66 111 116 116 111 109 32 67 111 118 101 114 80 1 905 904 906 8017 0 0 0 0
 0 0 0 0 0 TTTTTTTTTTTTTFTFT3 84 255 12 903 Bottom Cover79 255 13 906 SDL/TYSA_N
AME79 14 902 SDL/TYSA_UNAME83 3 708 .647058823529412 .647058823529412 .647058823
529412 83 3 702 .647058823529412 .647058823529412 .647058823529412 83 3 699 .647
058823529412 .647058823529412 .647058823529412 83 3 693 .647058823529412 .647058
823529412 .647058823529412 83 3 687 .647058823529412 .647058823529412 .647058823
529412 83 3 683 .647058823529412 .647058823529412 .647058823529412 83 3 677 .647
058823529412 .647058823529412 .647058823529412 83 3 672 .647058823529412 .647058
823529412 .647058823529412 83 3 668 .647058823529412 .647058823529412 .647058823
529412 79 9 664 BTI/DetId81 1 651 2083 29 580 0 647 531 654 910 82 3 658 82 1 2
 81 1 531 2082 29 533 0 0 536 651 908 82 3 910 82 0 2 81 1 536 2081 29 534 0 0 5
37 531 907 82 3 908 82 27 1 81 1 537 2080 29 540 0 0 545 536 909 82 3 907 82 26
 1 81 1 545 2079 29 539 0 0 544 537 914 82 3 909 82 25 1 81 1 544 2078 29 543 0
 0 547 545 915 82 3 914 82 24 1 81 1 547 2077 29 546 0 0 552 544 912 82 3 915 82
 23 1 81 1 552 2076 29 548 0 0 551 547 913 82 3 912 82 22 1 81 1 551 2075 29 555
 0 0 557 552 911 82 3 913 82 21 1 81 1 557 2074 29 553 0 0 560 551 918 82 3 911
 82 20 1 81 1 560 2073 29 559 0 0 563 557 920 82 3 918 82 19 1 81 1 563 2072 29
 561 0 0 564 560 916 82 3 920 82 18 1 81 1 564 2071 29 562 0 0 570 563 919 82 3
 916 82 17 1 82 3 919 82 16 1 79 15 660 SDL/TYSA_COLOUR83 3 653 .647058823529412
 .647058823529412 .647058823529412 83 3 649 .647058823529412 .647058823529412 .6
47058823529412 83 3 644 .647058823529412 .647058823529412 .647058823529412 17 12
5 0 590 119 130 118 632 503 0 635 +17 119 0 590 111 125 113 629 510 0 627 +17 11
1 0 590 109 119 112 630 509 0 621 +17 109 0 590 106 111 110 619 513 0 618 +17 10
6 0 590 105 109 103 616 516 0 613 +17 619 0 617 175 618 112 109 513 0 0 -17 105
 0 590 98 106 97 614 518 0 610 +17 98 0 590 94 105 92 604 525 0 602 +17 94 0 590
 86 98 93 601 524 0 597 +17 604 0 603 162 602 97 98 525 0 0 -81 1 22 2069 29 10
 0 0 400 570 917 82 3 566 82 15 1 81 1 400 2068 29 44 0 0 399 22 921 82 3 917 82
 14 1 81 1 399 2067 29 398 0 0 402 400 925 82 3 921 82 13 1 81 1 402 2066 29 401
 0 0 407 399 923 82 3 925 82 12 1 81 1 407 2065 29 406 0 0 415 402 922 82 3 923
 82 11 1 81 1 415 2064 29 409 0 0 419 407 924 82 3 922 82 10 1 81 1 419 2063 29
 412 0 0 416 415 926 82 3 924 82 9 1 81 1 416 2062 29 417 0 0 424 419 930 82 3 9
26 82 8 1 81 1 424 2061 29 425 0 0 428 416 928 82 3 930 82 7 1 81 1 428 2060 29
 426 0 0 435 424 927 82 3 928 82 6 1 81 1 435 2059 29 429 0 0 436 428 929 82 3 9
27 82 5 1 81 1 436 2058 29 432 0 0 437 435 931 82 3 929 82 4 1 81 1 437 2057 29
 292 0 0 291 436 935 82 3 931 82 3 1 81 1 291 2056 29 290 0 0 41 437 932 82 3 93
5 82 2 1 81 1 41 2055 29 38 0 0 36 291 933 82 3 932 82 1 1 82 3 933 82 0 1 81 1
 289 1408 29 339 0 0 286 336 934 81 1 336 1411 29 331 0 0 289 335 937 82 3 934 8
1 59 1 81 1 335 1414 29 329 0 0 336 327 940 82 3 937 81 61 1 81 1 327 1417 29 32
6 0 0 335 322 939 82 3 940 81 63 1 81 1 322 1420 29 325 0 0 327 319 936 82 3 939
 81 65 1 81 1 319 1423 29 318 0 0 322 316 938 82 3 936 81 67 1 81 1 316 1426 29
 314 0 0 319 315 941 82 3 938 81 69 1 81 1 315 1429 29 306 0 0 316 307 942 82 3
 941 81 71 1 81 1 307 1432 29 309 0 0 315 302 944 82 3 942 81 73 1 81 1 302 1435
 29 305 0 0 307 301 943 82 3 944 81 75 1 81 1 301 1438 29 298 0 0 302 297 945 82
 3 943 81 77 1 81 1 297 1441 29 276 0 0 301 278 946 82 3 945 81 79 1 81 1 278 14
44 29 263 0 0 297 147 950 82 3 946 81 81 1 81 1 147 1516 29 142 0 0 278 205 948
 82 3 950 81 83 1 81 1 205 1520 29 196 0 0 147 197 947 82 3 948 81 27 0 81 1 197
 1524 29 199 0 0 205 192 949 82 3 947 81 1 0 81 1 192 1528 29 195 0 0 197 189 95
5 82 3 949 81 3 0 81 1 189 1532 29 187 0 0 192 186 951 82 3 955 81 5 0 81 1 186
 1536 29 182 0 0 189 181 953 82 3 951 81 7 0 81 1 181 1540 29 179 0 0 186 178 95
2 82 3 953 81 9 0 81 1 178 1544 29 176 0 0 181 173 954 82 3 952 81 11 0 81 1 173
 1548 29 172 0 0 178 168 956 82 3 954 81 13 0 81 1 168 1552 29 169 0 0 173 167 9
60 82 3 956 81 15 0 81 1 167 1556 29 163 0 0 168 165 957 82 3 960 81 17 0 81 1 1
65 1560 29 159 0 0 167 158 958 82 3 957 81 19 0 81 1 158 1564 29 156 0 0 165 202
 959 82 3 958 81 21 0 81 1 202 1568 29 201 0 0 158 251 961 82 3 959 81 23 0 82 3
 961 81 31 0 82 3 295 81 57 1 82 3 260 81 29 0 81 1 148 2043 29 143 0 0 28 83 96
5 81 1 28 2042 29 84 0 0 25 148 963 81 1 83 2044 29 81 0 0 148 78 962 82 3 965 8
2 2 0 81 1 78 2045 29 80 0 0 83 74 964 82 3 962 82 3 0 81 1 74 2046 29 73 0 0 78
 75 969 82 3 964 82 4 0 81 1 75 2047 29 67 0 0 74 70 970 82 3 969 82 5 0 81 1 70
 2048 29 65 0 0 75 64 967 82 3 970 82 6 0 81 1 64 2049 29 61 0 0 70 56 968 82 3
 967 82 7 0 81 1 56 2050 29 60 0 0 64 54 966 82 3 968 82 8 0 81 1 54 2051 29 52
 0 0 56 51 973 82 3 966 82 9 0 81 1 51 2052 29 50 0 0 54 37 975 82 3 973 82 10 0
 81 1 37 2053 29 39 0 0 51 36 971 82 3 975 82 11 0 82 3 971 82 12 0 82 3 963 82
 1 0 82 3 45 82 13 0 82 3 34 82 0 0 19 17 928 0 1 0 9 5 0 S0 74 4 CI16 index_map
_offset0 0 1 dCCZ20 15 5 0 0 707 898 13 2 715 0 0 0 0 0 0 0 0 0 0 0 0 0 0 0 80 1
 12 636 974 8040 0 0 0 0 3 5 0 0 0 TTTFFFFFFFFFFFFFF2 83 3 14 .647058823529412 .
647058823529412 .647058823529412 79 17 974 SDL/TYSA_COLOUR_21 0 
